<?xml version="1.0" encoding="UTF-8"?>
<svg id="Layer_1" data-name="Layer 1" xmlns="http://www.w3.org/2000/svg" viewBox="0 0 268 309">
  <defs>
    <style>
      .cls-1 {
        fill: #e5971d;
      }

      .cls-2 {
        fill: #eff1f3;
      }
    </style>
  </defs>
  <path class="cls-1" d="M160.3,225.97l-.04,16.55c34.05-23.98,52.18-49.48,58.21-90.93l20.74-.33c-2.2,36.7-19.63,67.88-46.78,91.98-8.45,7.5-16.27,14.62-25.78,20.29l-27.13,16.15-.34-63.76.03-131.08,66.86-.17.02,20.39h-46.11s.1,111.43.1,111.43l18.48-16.79.13-13.64c-5.32-2.53-8.41-7.03-7.5-12.35s5.56-9.17,10.61-9.43c5.78-.3,9.9,3.94,11.08,8.6,1.54,6.05-1.34,10.86-7.16,12.94l-.09,15.87c-7.65,8.74-15.93,16.4-25.34,24.29ZM186.6,175.3c0-2.4-1.94-4.34-4.34-4.34s-4.34,1.94-4.34,4.34,1.94,4.34,4.34,4.34,4.34-1.94,4.34-4.34Z"/>
  <path class="cls-1" d="M183.7,141.5c-1.47,1.22-4.69.91-6.71.29.14-3.08-2.2-12.07-.83-14.99l4.71-5.05c3.37-4.04,13.44-2.79,17.27-3.44l21.64-.14-.03-46.88-59.72-17.05-.02,16.97h-20.46s.01-44.23.01-44.23l19.8,5.74,80.7,23.09v82.45s-31.7.15-31.7.15l-10.64,15.59c-.7-.07-1.73-.99-1.73-2.01l-.04-15.61c-.02-6.51-9.45-7.76-10.96-1.42-.01.05-.02.1-.03.15-.36,1.62.84,4.64-1.28,6.41Z"/>
  <path class="cls-2" d="M92,151.61l-15.19,15.95c-2-1.24-3.25-2.72-4.86-4.74l12.68-13.51.07-44.09-25.07-.21-.06-20.37,66.71.06-.05,155.02-20.46-13.77-.03-120.83-13.64-.04-.11,46.52Z"/>
  <path class="cls-2" d="M91.68,231.63c10.89,9.61,22.03,16.47,34.37,23.87l.24,24.15c-53.5-29.06-94.24-65.99-100-128.08l31.44-.18,10.88-15.48-.07,35.61-17.6.52c6.18,20.31,17.01,38.68,33.3,52.95.55-8.68,1.03-16.44-.12-23.88-4.18-3.31-8.38-6.98-6.95-13.42.95-4.28,5.3-9.15,10.95-9.02s9.78,4.08,11.15,9.38c1.51,5.81-2.85,9.98-7.02,12.96l-.56,30.62ZM92.58,189.89c0-2.41-1.95-4.36-4.36-4.36s-4.36,1.95-4.36,4.36,1.95,4.36,4.36,4.36,4.36-1.95,4.36-4.36Z"/>
  <polygon class="cls-2" points="105.43 54.2 46.15 71.24 46.2 138.41 25.53 138.46 25.53 55.74 126.25 26.65 126.31 71.45 105.76 71.46 105.43 54.2"/>
</svg>